<svg width="100%" viewBox="0 0 680 680" role="img" xmlns="http://www.w3.org/2000/svg">
<title>UniversalNumbers projective circle with 32 values</title>
<desc>A projective circle divided into three Julia-colored thirds with 32 numbers distributed around the circle, 1 at 3 oclock and -1 at 9 oclock</desc>

<path d="M340,340 L340,60 A280,280 0 0,1 582.5,480 Z" fill="#CB3C33" opacity="0.85"/>
<path d="M340,340 L582.5,480 A280,280 0 0,1 97.5,480 Z" fill="#9558B2" opacity="0.85"/>
<path d="M340,340 L97.5,480 A280,280 0 0,1 340,60 Z" fill="#389826" opacity="0.85"/>

<line x1="340" y1="340" x2="340" y2="60" stroke="white" stroke-width="2"/>
<line x1="340" y1="340" x2="582.5" y2="480" stroke="white" stroke-width="2"/>
<line x1="340" y1="340" x2="97.5" y2="480" stroke="white" stroke-width="2"/>

<circle cx="340" cy="340" r="280" fill="none" stroke="#555555" stroke-width="2.5"/>

<g font-family="sans-serif" font-weight="600" fill="white" text-anchor="middle">
<text x="340" y="84" font-size="14">∞</text>
<text x="388" y="101" font-size="10">4096</text>
<text x="436" y="115" font-size="10">512</text>
<text x="479" y="138" font-size="10">128</text>
<text x="516" y="169" font-size="10">32</text>
<text x="548" y="206" font-size="10">16</text>
<text x="570" y="249" font-size="10">8</text>
<text x="584" y="296" font-size="10">4</text>
<text x="596" y="344" font-size="12">1</text>
<text x="584" y="392" font-size="10">0.75</text>
<text x="568" y="439" font-size="10">0.5</text>
<text x="544" y="482" font-size="10">0.375</text>
<text x="512" y="519" font-size="10">0.25</text>
<text x="472" y="550" font-size="10">0.125</text>
<text x="428" y="574" font-size="10">0.0625</text>
<text x="380" y="593" font-size="10">0.015</text>
<text x="340" y="607" font-size="14">0</text>
<text x="294" y="593" font-size="10">−0.015</text>
<text x="246" y="574" font-size="10">−0.0625</text>
<text x="200" y="550" font-size="10">−0.125</text>
<text x="160" y="519" font-size="10">−0.25</text>
<text x="128" y="482" font-size="10">−0.375</text>
<text x="104" y="439" font-size="10">−0.5</text>
<text x="88" y="392" font-size="10">−0.75</text>
<text x="76" y="344" font-size="12">−1</text>
<text x="88" y="296" font-size="10">−4</text>
<text x="102" y="249" font-size="10">−8</text>
<text x="122" y="206" font-size="10">−16</text>
<text x="148" y="169" font-size="10">−32</text>
<text x="190" y="138" font-size="10">−128</text>
<text x="236" y="115" font-size="10">−512</text>
<text x="284" y="101" font-size="10">−4096</text>
</g>

<text x="340" y="668" text-anchor="middle" font-family="sans-serif" font-size="16" font-weight="500" fill="#666666" letter-spacing="1.5">UniversalNumbers</text>

</svg>
